<svg width="22" height="93" viewBox="0 0 22 93" fill="none" xmlns="http://www.w3.org/2000/svg">
<path d="M0.999931 0.991653C0.666644 0.997207 0.333356 1.00276 6.943e-05 1.00832C0.0254422 4.39238 0.0522585 7.77642 0.0805184 11.1604C0.302823 37.7806 0.614454 64.3992 1.01541 91.0164L1.03281 92.1711L2.17311 91.9694C6.84111 91.1435 11.5086 90.3149 16.1756 89.4835L16.2443 89.4687C17.8117 89.0622 19.8765 88.4281 20.8729 86.4891C21.8156 84.522 21.6061 82.6607 21.4948 80.9141C20.4881 69.4141 19.4589 57.9166 18.4071 46.4211L18.4033 46.3853C17.0227 35.8913 15.6232 25.3997 14.2048 14.9105L14.2066 15.0743C14.5099 10.7232 13.1145 6.51317 10.4634 3.11506C10.4581 3.10883 10.4529 3.10261 10.4476 3.09641C7.83595 0.0404431 3.7374 0.598252 0.506302 0.500024C0.502101 0.833331 0.497899 1.16664 0.493698 1.49995C3.79419 1.62499 7.56251 1.36072 9.52374 3.86916C9.52803 3.87439 9.53232 3.87964 9.5366 3.88491C11.8703 6.9574 13.1507 11.1075 12.7934 14.9256L12.7952 15.0895C14.0435 25.6003 15.3107 36.1087 16.5967 46.6147L16.5929 46.5789C17.5411 58.0834 18.5119 69.5859 19.5052 81.0865C19.637 82.7088 19.6857 84.424 19.0989 85.5655C18.5937 86.6187 17.2508 87.157 15.7557 87.5313L15.8244 87.5165C11.1581 88.3518 6.49223 89.1898 1.82689 90.0306L2.98459 90.9836C2.49833 64.3678 1.92275 37.7536 1.25784 11.1408C1.17331 7.75774 1.08734 4.37468 0.999931 0.991653ZM6.943e-05 1.00832L0.999931 0.991653L0.493698 1.49995L0.506302 0.500024L-0.00383066 0.488163L6.943e-05 1.00832Z" fill="black"/>
</svg>
